<?xml version="1.0" standalone="no"?><!DOCTYPE svg PUBLIC "-//W3C//DTD SVG 1.1//EN" "http://www.w3.org/Graphics/SVG/1.1/DTD/svg11.dtd"><svg t="1506565478548" class="icon" style="" viewBox="0 0 1024 1024" version="1.1" xmlns="http://www.w3.org/2000/svg" p-id="6012" xmlns:xlink="http://www.w3.org/1999/xlink" width="16" height="16"><defs><style type="text/css"></style></defs><path d="M512 25.6C243.2 25.6 25.6 243.2 25.6 512s217.6 486.4 486.4 486.4 486.4-217.6 486.4-486.4S780.8 25.6 512 25.6zM89.6 512C89.6 409.6 128 313.6 192 236.8l595.2 595.2c-76.8 64-166.4 102.4-275.2 102.4C281.6 934.4 89.6 742.4 89.6 512zM832 787.2 236.8 192C313.6 128 409.6 89.6 512 89.6c230.4 0 422.4 185.6 422.4 422.4C934.4 614.4 896 710.4 832 787.2z" p-id="6013" fill="#999999"></path></svg>