<?xml version="1.0" standalone="no"?><!DOCTYPE svg PUBLIC "-//W3C//DTD SVG 1.1//EN" "http://www.w3.org/Graphics/SVG/1.1/DTD/svg11.dtd"><svg t="1506563175022" class="icon" style="" viewBox="0 0 1024 1024" version="1.1" xmlns="http://www.w3.org/2000/svg" p-id="5033" xmlns:xlink="http://www.w3.org/1999/xlink" width="16" height="16"><defs><style type="text/css"></style></defs><path d="M988.831101 505.365756c0 263.346798-213.486109 476.832907-476.831101 476.832907S35.168899 768.712554 35.168899 505.365756c0-263.344991 213.486109-476.829295 476.831101-476.829295S988.831101 242.020764 988.831101 505.365756zM512 81.516491c-234.087849 0-423.851072 189.763223-423.851072 423.849265 0 234.091461 189.765029 423.852878 423.851072 423.852878s423.851072-189.763223 423.851072-423.852878C935.851072 271.279714 746.086042 81.516491 512 81.516491z" p-id="5034" fill="#1ca6f8"></path><path d="M353.171898 507.766222c-5.046577 0-9.811384 0.437105-14.462399-0.092117-10.651276-1.208361-19.6029-6.180883-27.134835-13.694756-18.4704-18.412601-36.978731-36.787272-55.308246-55.335339-19.303067-19.532457-19.404216-48.57466-0.046962-68.11073 29.627418-29.907382 59.493257-59.579955 89.274203-89.335615 9.656049-9.650631 21.468725-14.162567 34.997308-14.198691 25.426151-0.070443 50.854109 0.016256 76.28026-0.055993 4.716039-0.012644 8.852282 1.221004 12.928919 3.634114 28.155349 16.646119 56.429908 16.646119 84.585257 0.016256 4.170561-2.463683 8.398921-3.664819 13.207077-3.65037 25.332228 0.077667 50.668068-0.039737 76.002103 0.068636 13.503297 0.057799 25.36474 4.537223 35.018983 14.180629 29.789978 29.746628 59.643173 59.433651 89.279622 89.332002 19.424084 19.592063 19.219981 48.715545-0.234809 68.322057-18.235592 18.380089-36.584975 36.649999-54.909072 54.94339-10.951109 10.934853-24.19431 15.602124-39.581493 14.289002-0.464198-0.039737-0.928397-0.09573-1.392595-0.126435-0.083086-0.005419-0.171591 0.061411-0.653851 0.247452-0.048768 1.063863-0.157141 2.30293-0.157141 3.543803-0.009031 60.725098-0.048768 121.44839 0.030706 182.175295 0.016256 10.844542-2.396853 20.870866-8.808932 29.696054-9.845702 13.550258-23.354418 20.126703-40.000536 20.139347-73.392115 0.045155-146.786037 0.070443-220.17454-0.01445-21.79565-0.025287-39.158838-12.322029-46.217544-32.257273-2.013935-5.685979-2.537738-11.588704-2.534126-17.588965 0.025287-60.723292 0.016256-121.450197 0.016256-182.175295C353.171898 510.524319 353.171898 509.343051 353.171898 507.766222zM512.092117 712.143566c36.321267 0 72.640728 0.037931 108.961995-0.077667 3.079604-0.010837 6.42111-0.507548 9.184626-1.770095 6.917821-3.164496 9.090703-9.253262 9.08709-16.517877-0.037931-69.571961-0.0289-139.138504-0.005419-208.706853 0-2.129533-0.012644-4.329508 0.484067-6.374148 2.89537-11.948142 17.502267-16.057291 26.775397-7.248359 7.786612 7.394662 16.599157 7.033419 24.188891-0.538253 18.062195-18.024264 36.115358-36.059365 54.128785-54.13601 7.551804-7.578897 7.564447-16.864671 0.0289-24.416475-29.34926-29.392609-58.747288-58.734644-88.085711-88.138091-3.787642-3.794867-8.323059-5.577606-13.541227-5.590249-24.028138-0.054187-48.054469-0.036124-72.082606 0.01445-1.143337 0.001806-2.416722 0.308864-3.40653 0.870598-13.602639 7.737844-28.108387 12.630893-43.71593 14.267328-23.885446 2.508839-46.248249-2.163851-67.20762-13.851897-1.378145-0.767643-3.113922-1.262547-4.685333-1.267966-23.65425-0.079474-47.3085-0.050574-70.964556-0.059605-5.559544 0-10.264745 1.797188-14.274552 5.823252-29.127095 29.222825-58.326439 58.366176-87.478821 87.561907-1.372727 1.374533-2.721973 2.857439-3.711781 4.51013-3.99897 6.668562-2.749066 14.158954 3.363181 20.287457 18.087482 18.134443 36.209282 36.230956 54.329275 54.331081 0.854342 0.852536 1.76287 1.667141 2.731004 2.386016 3.269257 2.42214 6.928658 3.366793 11.014326 3.065154 4.916529-0.36305 8.277904-3.368599 11.807257-6.305512 6.796804-5.657079 16.600963-4.585991 22.1587 2.261387 3.372212 4.148886 3.614245 8.962461 3.603408 14.111993-0.108373 69.194461-0.06683 138.390729-0.025287 207.588803 0 2.028384 0.16256 4.123599 0.679139 6.074316 1.97781 7.503036 8.200236 11.832544 16.857446 11.836156C438.889655 712.147179 475.490886 712.143566 512.092117 712.143566z" p-id="5035" fill="#1ca6f8"></path></svg>